<?xml version="1.0" standalone="no"?>
<!DOCTYPE svg PUBLIC "-//W3C//DTD SVG 20010904//EN"
 "http://www.w3.org/TR/2001/REC-SVG-20010904/DTD/svg10.dtd">
<svg version="1.0" xmlns="http://www.w3.org/2000/svg"
 width="423.000000pt" height="423.000000pt" viewBox="0 0 423.000000 423.000000"
 preserveAspectRatio="xMidYMid meet">
<metadata>
Created by potrace 1.11, written by Peter Selinger 2001-2013
</metadata>
<g transform="translate(0.000000,423.000000) scale(0.100000,-0.100000)"
fill="#000000" stroke="none">
<path d="M3250 4220 c-56 -14 -122 -45 -159 -76 -18 -15 -114 -129 -213 -253
-99 -125 -192 -242 -208 -261 -29 -36 -229 -294 -284 -365 -17 -22 -33 -42
-37 -45 -3 -3 -51 -65 -108 -138 -97 -125 -136 -160 -171 -157 -8 1 -25 3 -37
3 -20 2 -61 47 -174 193 -15 19 -64 82 -110 141 -46 58 -106 136 -134 173 -27
36 -55 72 -61 79 -7 7 -96 127 -199 267 -215 291 -283 366 -365 403 -62 28
-161 39 -233 26 -23 -5 -60 -11 -82 -14 -241 -35 -364 -97 -400 -202 -28 -83
-9 -125 146 -325 138 -177 138 -177 271 -353 59 -77 111 -145 115 -151 14 -17
204 -266 267 -350 33 -44 66 -87 73 -95 72 -85 324 -427 332 -451 15 -43 14
-73 -3 -114 -8 -18 -187 -262 -397 -542 -211 -279 -427 -566 -481 -638 -54
-71 -101 -134 -106 -140 -16 -21 -329 -441 -350 -472 -29 -42 -39 -119 -22
-179 34 -121 167 -173 430 -168 154 3 234 18 330 65 60 29 92 62 251 259 102
127 107 133 155 191 22 26 46 55 54 65 36 45 324 389 330 394 5 4 229 271 285
339 75 91 119 115 182 99 39 -10 53 -25 203 -218 66 -85 126 -162 133 -170 6
-8 37 -47 67 -85 30 -39 57 -72 60 -75 3 -3 23 -27 45 -55 84 -106 373 -449
440 -521 6 -6 35 -40 65 -75 175 -205 231 -229 530 -224 91 1 176 5 190 7 153
30 234 100 239 208 3 68 -32 149 -105 243 -35 45 -92 118 -126 162 -93 119
-494 628 -541 685 -7 8 -86 107 -176 219 -90 113 -168 209 -173 215 -99 118
-313 389 -325 411 -24 45 -25 123 -2 169 10 22 23 42 27 45 4 4 64 78 132 166
69 88 130 167 137 175 22 27 535 680 702 895 90 116 170 225 178 243 8 18 16
60 18 92 9 134 -86 225 -276 265 -85 18 -277 27 -329 15z"/>
</g>
</svg>
